<?xml version="1.0" encoding="UTF-8" standalone="no"?><!DOCTYPE svg PUBLIC "-//W3C//DTD SVG 1.1//EN" "http://www.w3.org/Graphics/SVG/1.1/DTD/svg11.dtd"><svg width="100%" height="100%" viewBox="0 0 1059 1044" version="1.1" xmlns="http://www.w3.org/2000/svg" xmlns:xlink="http://www.w3.org/1999/xlink" xml:space="preserve" xmlns:serif="http://www.serif.com/" style="fill-rule:evenodd;clip-rule:evenodd;stroke-linejoin:round;stroke-miterlimit:1.41421;"><path id="Studios" d="M700.477,1043.8l-15.544,0l0,-144.758l15.544,0l0,144.758Zm-450.792,-128.242l-34.976,0l0,125.328l-17.487,0l0,-125.328l-34.976,0l0,-16.516l87.439,0l0,16.516Zm-170.991,125.328l-69.95,0l-8.744,-8.744l0,-36.918l15.545,0c-0.648,1.943 -0.486,5.667 0.485,11.172c0.972,5.506 1.781,8.906 2.429,10.201c0,1.296 0.81,2.591 2.429,3.887c1.619,1.295 2.753,1.943 3.4,1.943l35.947,0l5.829,-5.83l0,-35.946l-5.829,-7.773l-51.491,0l-8.744,-10.687l0,-50.519l11.658,-12.63l67.036,0l5.83,5.829l0,36.918l-15.545,0c0.648,-1.943 0.486,-5.667 -0.486,-11.172c-0.971,-5.506 -1.781,-8.906 -2.429,-10.202c0,-1.295 -0.809,-2.59 -2.428,-3.886c-1.619,-1.295 -2.753,-1.943 -3.401,-1.943l-35.947,0l-5.829,5.829l0,27.203l5.829,7.773l51.492,0l8.744,9.715l0,69.951l-5.83,5.829Zm324.493,0l-67.036,0l-8.744,-8.744l0,-133.1l16.517,0l0,117.555l7.772,5.83l35.947,0l7.772,-5.83l0,-117.555l16.516,0l0,133.1l-8.744,8.744Zm480.91,0l-61.206,0l-11.659,-11.659l0,-117.555l11.659,-12.63l61.206,0l11.659,12.63l0,117.555l-11.659,11.659Zm168.076,0l-69.951,0l-8.743,-8.744l0,-36.918l15.544,0c-0.648,1.943 -0.486,5.667 0.486,11.172c0.971,5.506 1.781,8.906 2.429,10.201c0,1.296 0.809,2.591 2.429,3.887c1.619,1.295 2.752,1.943 3.4,1.943l35.947,0l5.829,-5.83l0,-35.946l-5.829,-7.773l-51.492,0l-8.743,-10.687l0,-50.519l11.658,-12.63l67.036,0l5.829,5.829l0,36.918l-15.544,0c0.647,-1.943 0.485,-5.667 -0.486,-11.172c-0.972,-5.506 -1.781,-8.906 -2.429,-10.202c0,-1.295 -0.81,-2.59 -2.429,-3.886c-1.619,-1.295 -2.752,-1.943 -3.4,-1.943l-35.947,0l-5.829,5.829l0,27.203l5.829,7.773l51.491,0l8.744,9.715l0,69.951l-5.829,5.829Zm-505.199,-2.915l-48.576,0l0,-141.844l45.662,0c4.534,0 9.068,1.457 13.601,4.372c4.534,2.915 8.744,6.477 12.63,10.687c3.886,4.21 6.963,8.744 9.23,13.601c2.267,4.858 3.4,9.554 3.4,14.088l0,57.32c0,2.591 -1.295,6.153 -3.886,10.687c-2.591,4.534 -5.667,9.068 -9.229,13.602c-3.563,4.533 -7.449,8.581 -11.659,12.144c-4.21,3.562 -7.934,5.343 -11.173,5.343Zm324.493,-120.47l-35.946,0l-5.83,5.829l0,93.267l5.83,5.83l35.946,0l5.83,-5.83l0,-93.267l-5.83,-5.829Zm-327.407,102.011c0.648,0 2.915,-1.782 6.801,-5.343c3.886,-3.563 6.8,-6.639 8.743,-9.23c0,-0.648 0.486,-1.781 1.458,-3.4c0.971,-1.62 1.457,-2.429 1.457,-2.429l0,-60.235c0,-0.648 -1.295,-3.239 -3.886,-7.773c-2.591,-4.534 -4.534,-8.096 -5.829,-10.687c-1.943,-3.886 -5.344,-5.991 -10.201,-6.315c-4.858,-0.323 -8.906,-0.485 -12.145,-0.485c-1.295,0 -3.562,0.162 -6.8,0.485c-3.239,0.324 -5.506,0.486 -6.801,0.486l0,104.926l27.203,0Zm52.113,-279.705l-25.765,0l0,-739.806l25.765,0l0,739.806Zm-436.155,0l-5.521,0l0,-739.806l5.521,0l0,739.806Zm17.483,0l-5.521,0l0,-739.806l5.521,0l0,739.806Zm39.567,0l-25.765,0l0,-739.806l25.765,0l0,739.806Zm34.966,0l-25.765,0l0,-739.806l25.765,0l0,739.806Zm36.806,0l-5.521,0l0,-739.806l5.521,0l0,739.806Zm-282.488,0l-5.521,0l0,-739.806l5.521,0l0,739.806Zm37.726,0l-25.764,0l0,-739.806l25.764,0l0,739.806Zm16.563,0l-5.521,0l0,-739.806l5.521,0l0,739.806Zm37.727,0l-25.765,0l0,-739.806l25.765,0l0,739.806Zm696.558,0l-25.764,0l0,-739.806l25.764,0l0,739.806Zm133.423,0l-5.521,0l0,-739.806l5.521,0l0,739.806Zm37.727,0l-25.765,0l0,-739.806l25.765,0l0,739.806Zm16.562,0l-5.52,0l0,-739.806l5.52,0l0,739.806Zm37.727,0l-25.764,0l0,-739.806l25.764,0l0,739.806Zm36.806,0l-5.521,0l0,-739.806l5.521,0l0,739.806Zm-723.243,0l-25.765,0l0,-739.806l25.765,0l0,739.806Zm34.046,0l-5.521,0l0,-739.806l5.521,0l0,739.806Zm20.243,0l-5.521,0l0,-739.806l5.521,0l0,739.806Zm17.483,0l-6.441,0l0,-739.806l6.441,0l0,739.806Zm36.806,0l-25.764,0l0,-739.806l25.764,0l0,739.806Zm116.86,0l-6.441,0l0,-739.806l6.441,0l0,739.806Zm-34.966,0l-25.764,0l0,-739.806l25.764,0l0,739.806Zm-39.566,0l-5.521,0l0,-739.806l5.521,0l0,739.806Zm-17.483,0l-5.521,0l0,-739.806l5.521,0l0,739.806Zm282.488,0l-5.521,0l0,-739.806l5.521,0l0,739.806Zm-17.483,0l-25.765,0l0,-739.806l25.765,0l0,739.806Zm-57.05,0l-5.521,0l0,-739.806l5.521,0l0,739.806Zm-16.563,0l-25.764,0l0,-739.806l25.764,0l0,739.806Zm-37.726,0l-5.521,0l0,-739.806l5.521,0l0,739.806Zm282.488,0l-5.521,0l0,-739.806l5.521,0l0,739.806Zm-36.806,0l-6.441,0l0,-739.806l6.441,0l0,739.806Zm-17.483,0l-25.765,0l0,-739.806l25.765,0l0,739.806Zm-36.807,0l-6.441,0l0,-739.806l6.441,0l0,739.806Zm-677.235,0l-5.521,0l0,-739.806l5.521,0l0,739.806Z" style="fill:#c93;"/><path id="Polymorphic" d="M390.722,860.768l-14.958,0l22.378,-81.854c1.037,-4.148 3.55,-6.223 7.539,-6.223c1.596,0 3.092,0.439 4.488,1.317c1.396,0.877 2.453,2.154 3.171,3.829l26.806,61.51l26.806,-61.51c1.436,-3.431 3.87,-5.146 7.3,-5.146c3.67,0 6.103,2.075 7.3,6.223l22.259,81.854l-15.079,0l-16.634,-61.151l-24.652,56.604c-0.878,1.835 -1.935,3.251 -3.171,4.248c-1.237,0.997 -2.773,1.496 -4.608,1.496c-3.59,0 -6.182,-1.915 -7.778,-5.744l-24.532,-56.604l-16.635,61.151Zm533.369,0.359l-15.198,0l0,-37.815l-43.799,0l0,-13.523l43.799,0l0,-36.021l15.198,0l0,87.359Zm-70.006,0l-15.199,0l0,-87.359l15.199,0l0,87.359Zm-839.007,-0.359l-15.078,0l0,-87l61.151,0c5.026,0 9.514,0.738 13.463,2.214c3.949,1.476 7.28,3.55 9.993,6.223c2.712,2.673 4.786,5.924 6.223,9.753c1.436,3.83 2.154,8.138 2.154,12.924c0,4.707 -0.718,8.996 -2.154,12.865c-1.437,3.869 -3.511,7.2 -6.223,9.992c-2.713,2.793 -6.044,4.967 -9.993,6.522c-3.949,1.556 -8.436,2.334 -13.463,2.334l-34.943,0l0,-14.719l34.943,0c5.346,0 9.514,-1.516 12.506,-4.548c2.992,-3.032 4.487,-7.021 4.487,-11.967c0,-5.026 -1.495,-9.015 -4.487,-11.967c-2.992,-2.952 -7.16,-4.428 -12.506,-4.428l-46.073,0l0,71.802Zm940.128,0l-15.198,0l0,-87l15.198,0l0,87Zm-661.895,0l-73.717,0l0,-87l15.198,0l0,71.802l58.519,0l0,15.198Zm764.691,0l-47.15,0c-6.063,0 -11.668,-1.137 -16.813,-3.41c-5.146,-2.274 -9.614,-5.385 -13.403,-9.335c-3.79,-3.949 -6.742,-8.636 -8.856,-14.061c-2.114,-5.425 -3.171,-11.289 -3.171,-17.591c0,-6.383 1.057,-12.207 3.171,-17.472c2.114,-5.266 5.066,-9.753 8.856,-13.463c3.789,-3.71 8.257,-6.582 13.403,-8.616c5.145,-2.035 10.75,-3.052 16.813,-3.052l47.15,0l0,15.198l-47.15,0c-3.909,0 -7.519,0.698 -10.83,2.095c-3.311,1.396 -6.163,3.33 -8.556,5.804c-2.394,2.473 -4.269,5.425 -5.625,8.855c-1.356,3.431 -2.034,7.22 -2.034,11.369c0,4.069 0.678,7.858 2.034,11.368c1.356,3.511 3.231,6.522 5.625,9.036c2.393,2.513 5.245,4.487 8.556,5.923c3.311,1.436 6.921,2.154 10.83,2.154l47.15,0l0,15.198Zm-307.791,0l-15.078,0l0,-87l61.151,0c5.026,0 9.514,0.738 13.463,2.214c3.949,1.476 7.28,3.55 9.992,6.223c2.713,2.673 4.787,5.924 6.223,9.753c1.436,3.83 2.154,8.138 2.154,12.924c0,4.707 -0.718,8.996 -2.154,12.865c-1.436,3.869 -3.51,7.2 -6.223,9.992c-2.712,2.793 -6.043,4.967 -9.992,6.522c-3.949,1.556 -8.437,2.334 -13.463,2.334l-34.944,0l0,-14.719l34.944,0c5.345,0 9.514,-1.516 12.505,-4.548c2.992,-3.032 4.488,-7.021 4.488,-11.967c0,-5.026 -1.496,-9.015 -4.488,-11.967c-2.991,-2.952 -7.16,-4.428 -12.505,-4.428l-46.073,0l0,71.802Zm-110.216,0l-15.078,0l0,-87l62.467,0c4.947,0 9.374,0.738 13.284,2.214c3.909,1.476 7.22,3.59 9.932,6.343c2.713,2.752 4.787,6.083 6.223,9.992c1.436,3.909 2.154,8.297 2.154,13.164c0,7.26 -1.576,13.343 -4.727,18.249c-3.151,4.907 -7.559,8.437 -13.223,10.591l26.207,26.447l-21.54,0l-22.019,-24.173l-32.551,0l0,-13.403l36.26,0c5.505,0 9.654,-1.496 12.446,-4.488c2.792,-2.991 4.188,-7.319 4.188,-12.984c0,-5.664 -1.456,-9.873 -4.368,-12.625c-2.912,-2.752 -7,-4.129 -12.266,-4.129l-47.389,0l0,71.802Zm-70.007,0l-21.182,0c-6.063,0 -11.667,-1.137 -16.813,-3.41c-5.146,-2.274 -9.614,-5.385 -13.403,-9.335c-3.79,-3.949 -6.742,-8.636 -8.856,-14.061c-2.114,-5.425 -3.171,-11.289 -3.171,-17.591c0,-6.383 1.057,-12.207 3.171,-17.472c2.114,-5.266 5.066,-9.753 8.856,-13.463c3.789,-3.71 8.257,-6.582 13.403,-8.616c5.146,-2.035 10.75,-3.052 16.813,-3.052l21.182,0c6.303,0 12.067,1.037 17.292,3.112c5.226,2.074 9.714,4.986 13.463,8.736c3.75,3.749 6.662,8.237 8.736,13.462c2.074,5.226 3.112,10.99 3.112,17.293c0,6.302 -1.058,12.166 -3.172,17.591c-2.114,5.425 -5.066,10.112 -8.855,14.061c-3.79,3.95 -8.277,7.061 -13.463,9.335c-5.186,2.273 -10.89,3.41 -17.113,3.41Zm-405.322,0l-21.182,0c-6.063,0 -11.668,-1.137 -16.813,-3.41c-5.146,-2.274 -9.614,-5.385 -13.403,-9.335c-3.79,-3.949 -6.742,-8.636 -8.856,-14.061c-2.114,-5.425 -3.171,-11.289 -3.171,-17.591c0,-6.383 1.057,-12.207 3.171,-17.472c2.114,-5.266 5.066,-9.753 8.856,-13.463c3.789,-3.71 8.257,-6.582 13.403,-8.616c5.145,-2.035 10.75,-3.052 16.813,-3.052l21.182,0c6.302,0 12.067,1.037 17.292,3.112c5.226,2.074 9.713,4.986 13.463,8.736c3.75,3.749 6.662,8.237 8.736,13.462c2.074,5.226 3.111,10.99 3.111,17.293c0,6.302 -1.057,12.166 -3.171,17.591c-2.114,5.425 -5.066,10.112 -8.855,14.061c-3.79,3.95 -8.278,7.061 -13.463,9.335c-5.186,2.273 -10.89,3.41 -17.113,3.41Zm176.633,0l-15.198,0l0,-33.029l-46.193,-53.971l20.464,0l33.866,40.09l33.986,-40.09l19.387,0l-46.312,53.971l0,33.029Zm228.689,-15.198c3.989,0 7.659,-0.718 11.01,-2.154c3.35,-1.436 6.242,-3.41 8.676,-5.923c2.433,-2.514 4.328,-5.525 5.684,-9.036c1.356,-3.51 2.034,-7.299 2.034,-11.368c0,-4.069 -0.678,-7.839 -2.034,-11.309c-1.356,-3.47 -3.251,-6.442 -5.684,-8.915c-2.434,-2.474 -5.326,-4.408 -8.676,-5.804c-3.351,-1.397 -7.021,-2.095 -11.01,-2.095l-21.182,0c-3.909,0 -7.519,0.698 -10.83,2.095c-3.311,1.396 -6.163,3.33 -8.556,5.804c-2.393,2.473 -4.268,5.425 -5.625,8.855c-1.356,3.431 -2.034,7.22 -2.034,11.369c0,4.069 0.678,7.858 2.034,11.368c1.357,3.511 3.232,6.522 5.625,9.036c2.393,2.513 5.245,4.487 8.556,5.923c3.311,1.436 6.921,2.154 10.83,2.154l21.182,0Zm-405.322,0c3.989,0 7.659,-0.718 11.01,-2.154c3.35,-1.436 6.242,-3.41 8.676,-5.923c2.433,-2.514 4.328,-5.525 5.684,-9.036c1.356,-3.51 2.034,-7.299 2.034,-11.368c0,-4.069 -0.678,-7.839 -2.034,-11.309c-1.356,-3.47 -3.251,-6.442 -5.684,-8.915c-2.434,-2.474 -5.326,-4.408 -8.676,-5.804c-3.351,-1.397 -7.021,-2.095 -11.01,-2.095l-21.182,0c-3.909,0 -7.519,0.698 -10.83,2.095c-3.311,1.396 -6.163,3.33 -8.556,5.804c-2.394,2.473 -4.268,5.425 -5.625,8.855c-1.356,3.431 -2.034,7.22 -2.034,11.369c0,4.069 0.678,7.858 2.034,11.368c1.357,3.511 3.231,6.522 5.625,9.036c2.393,2.513 5.245,4.487 8.556,5.923c3.311,1.436 6.921,2.154 10.83,2.154l21.182,0Z" style="fill-rule:nonzero;"/></svg>