<?xml version="1.0" encoding="UTF-8" standalone="no"?><!DOCTYPE svg PUBLIC "-//W3C//DTD SVG 1.1//EN" "http://www.w3.org/Graphics/SVG/1.1/DTD/svg11.dtd"><svg width="100%" height="100%" viewBox="0 0 1059 1044" version="1.1" xmlns="http://www.w3.org/2000/svg" xmlns:xlink="http://www.w3.org/1999/xlink" xml:space="preserve" xmlns:serif="http://www.serif.com/" style="fill-rule:evenodd;clip-rule:evenodd;stroke-linejoin:round;stroke-miterlimit:1.41421;"><text x="-7.539px" y="860.768px" style="font-family:'GoodTimesRg-Regular', 'Good Times', sans-serif;font-size:119.67px;">POL<tspan x="278.352px 372.892px 501.537px " y="860.768px 860.768px 860.768px ">YMO</tspan>RPHIC</text><path d="M700.477,1043.8l-15.544,0l0,-144.758l15.544,0l0,144.758Zm-450.792,-128.242l-34.976,0l0,125.328l-17.487,0l0,-125.328l-34.976,0l0,-16.516l87.439,0l0,16.516Zm-170.991,125.328l-69.95,0l-8.744,-8.744l0,-36.918l15.545,0c-0.648,1.943 -0.486,5.667 0.485,11.172c0.972,5.506 1.781,8.906 2.429,10.201c0,1.296 0.81,2.591 2.429,3.887c1.619,1.295 2.753,1.943 3.4,1.943l35.947,0l5.829,-5.83l0,-35.946l-5.829,-7.773l-51.491,0l-8.744,-10.687l0,-50.519l11.658,-12.63l67.036,0l5.83,5.829l0,36.918l-15.545,0c0.648,-1.943 0.486,-5.667 -0.486,-11.172c-0.971,-5.506 -1.781,-8.906 -2.429,-10.202c0,-1.295 -0.809,-2.59 -2.428,-3.886c-1.619,-1.295 -2.753,-1.943 -3.401,-1.943l-35.947,0l-5.829,5.829l0,27.203l5.829,7.773l51.492,0l8.744,9.715l0,69.951l-5.83,5.829Zm324.493,0l-67.036,0l-8.744,-8.744l0,-133.1l16.517,0l0,117.555l7.772,5.83l35.947,0l7.772,-5.83l0,-117.555l16.516,0l0,133.1l-8.744,8.744Zm480.91,0l-61.206,0l-11.659,-11.659l0,-117.555l11.659,-12.63l61.206,0l11.659,12.63l0,117.555l-11.659,11.659Zm168.076,0l-69.951,0l-8.743,-8.744l0,-36.918l15.544,0c-0.648,1.943 -0.486,5.667 0.486,11.172c0.971,5.506 1.781,8.906 2.429,10.201c0,1.296 0.809,2.591 2.429,3.887c1.619,1.295 2.752,1.943 3.4,1.943l35.947,0l5.829,-5.83l0,-35.946l-5.829,-7.773l-51.492,0l-8.743,-10.687l0,-50.519l11.658,-12.63l67.036,0l5.829,5.829l0,36.918l-15.544,0c0.647,-1.943 0.485,-5.667 -0.486,-11.172c-0.972,-5.506 -1.781,-8.906 -2.429,-10.202c0,-1.295 -0.81,-2.59 -2.429,-3.886c-1.619,-1.295 -2.752,-1.943 -3.4,-1.943l-35.947,0l-5.829,5.829l0,27.203l5.829,7.773l51.491,0l8.744,9.715l0,69.951l-5.829,5.829Zm-505.199,-2.915l-48.576,0l0,-141.844l45.662,0c4.534,0 9.068,1.457 13.601,4.372c4.534,2.915 8.744,6.477 12.63,10.687c3.886,4.21 6.963,8.744 9.23,13.601c2.267,4.858 3.4,9.554 3.4,14.088l0,57.32c0,2.591 -1.295,6.153 -3.886,10.687c-2.591,4.534 -5.667,9.068 -9.229,13.602c-3.563,4.533 -7.449,8.581 -11.659,12.144c-4.21,3.562 -7.934,5.343 -11.173,5.343Zm324.493,-120.47l-35.946,0l-5.83,5.829l0,93.267l5.83,5.83l35.946,0l5.83,-5.83l0,-93.267l-5.83,-5.829Zm-327.407,102.011c0.648,0 2.915,-1.782 6.801,-5.343c3.886,-3.563 6.8,-6.639 8.743,-9.23c0,-0.648 0.486,-1.781 1.458,-3.4c0.971,-1.62 1.457,-2.429 1.457,-2.429l0,-60.235c0,-0.648 -1.295,-3.239 -3.886,-7.773c-2.591,-4.534 -4.534,-8.096 -5.829,-10.687c-1.943,-3.886 -5.344,-5.991 -10.201,-6.315c-4.858,-0.323 -8.906,-0.485 -12.145,-0.485c-1.295,0 -3.562,0.162 -6.8,0.485c-3.239,0.324 -5.506,0.486 -6.801,0.486l0,104.926l27.203,0Zm52.113,-279.705l-25.765,0l0,-739.806l25.765,0l0,739.806Zm-436.155,0l-5.521,0l0,-739.806l5.521,0l0,739.806Zm17.483,0l-5.521,0l0,-739.806l5.521,0l0,739.806Zm39.567,0l-25.765,0l0,-739.806l25.765,0l0,739.806Zm34.966,0l-25.765,0l0,-739.806l25.765,0l0,739.806Zm36.806,0l-5.521,0l0,-739.806l5.521,0l0,739.806Zm-282.488,0l-5.521,0l0,-739.806l5.521,0l0,739.806Zm37.726,0l-25.764,0l0,-739.806l25.764,0l0,739.806Zm16.563,0l-5.521,0l0,-739.806l5.521,0l0,739.806Zm37.727,0l-25.765,0l0,-739.806l25.765,0l0,739.806Zm696.558,0l-25.764,0l0,-739.806l25.764,0l0,739.806Zm133.423,0l-5.521,0l0,-739.806l5.521,0l0,739.806Zm37.727,0l-25.765,0l0,-739.806l25.765,0l0,739.806Zm16.562,0l-5.52,0l0,-739.806l5.52,0l0,739.806Zm37.727,0l-25.764,0l0,-739.806l25.764,0l0,739.806Zm36.806,0l-5.521,0l0,-739.806l5.521,0l0,739.806Zm-723.243,0l-25.765,0l0,-739.806l25.765,0l0,739.806Zm34.046,0l-5.521,0l0,-739.806l5.521,0l0,739.806Zm20.243,0l-5.521,0l0,-739.806l5.521,0l0,739.806Zm17.483,0l-6.441,0l0,-739.806l6.441,0l0,739.806Zm36.806,0l-25.764,0l0,-739.806l25.764,0l0,739.806Zm116.86,0l-6.441,0l0,-739.806l6.441,0l0,739.806Zm-34.966,0l-25.764,0l0,-739.806l25.764,0l0,739.806Zm-39.566,0l-5.521,0l0,-739.806l5.521,0l0,739.806Zm-17.483,0l-5.521,0l0,-739.806l5.521,0l0,739.806Zm282.488,0l-5.521,0l0,-739.806l5.521,0l0,739.806Zm-17.483,0l-25.765,0l0,-739.806l25.765,0l0,739.806Zm-57.05,0l-5.521,0l0,-739.806l5.521,0l0,739.806Zm-16.563,0l-25.764,0l0,-739.806l25.764,0l0,739.806Zm-37.726,0l-5.521,0l0,-739.806l5.521,0l0,739.806Zm282.488,0l-5.521,0l0,-739.806l5.521,0l0,739.806Zm-36.806,0l-6.441,0l0,-739.806l6.441,0l0,739.806Zm-17.483,0l-25.765,0l0,-739.806l25.765,0l0,739.806Zm-36.807,0l-6.441,0l0,-739.806l6.441,0l0,739.806Zm-677.235,0l-5.521,0l0,-739.806l5.521,0l0,739.806Z" style="fill:#c93;"/></svg>