<?xml version="1.0" encoding="UTF-8" standalone="no"?><!DOCTYPE svg PUBLIC "-//W3C//DTD SVG 1.1//EN" "http://www.w3.org/Graphics/SVG/1.1/DTD/svg11.dtd"><svg width="100%" height="100%" viewBox="0 0 2181 165" version="1.1" xmlns="http://www.w3.org/2000/svg" xmlns:xlink="http://www.w3.org/1999/xlink" xml:space="preserve" xmlns:serif="http://www.serif.com/" style="fill-rule:evenodd;clip-rule:evenodd;stroke-linejoin:round;stroke-miterlimit:1.41421;"><path id="Studios" d="M2115.41,139.72l0,24.667l-2.649,0l0,-24.667l2.649,0Zm-105.949,0l0.993,0.994l0,6.29l-2.649,0c0.111,-0.331 0.083,-0.965 -0.082,-1.903c-0.166,-0.938 -0.304,-1.518 -0.414,-1.739c0,-0.22 -0.138,-0.441 -0.414,-0.662c-0.276,-0.22 -0.469,-0.331 -0.58,-0.331l-6.125,0l-0.993,0.993l0,4.636l0.993,1.324l8.774,0l1.49,1.656l0,11.919l-0.993,0.993l-11.92,0l-1.489,-1.49l0,-6.291l2.648,0c-0.11,0.332 -0.082,0.966 0.083,1.904c0.166,0.938 0.304,1.518 0.414,1.738c0,0.221 0.138,0.442 0.414,0.663c0.276,0.22 0.469,0.331 0.579,0.331l6.125,0l0.994,-0.994l0,-6.125l-0.994,-1.324l-8.774,0l-1.489,-1.821l0,-8.608l1.986,-2.153l11.423,0Zm165.876,0l0.994,0.994l0,6.29l-2.649,0c0.11,-0.331 0.083,-0.965 -0.083,-1.903c-0.165,-0.938 -0.303,-1.518 -0.414,-1.739c0,-0.22 -0.138,-0.441 -0.414,-0.662c-0.275,-0.22 -0.469,-0.331 -0.579,-0.331l-6.125,0l-0.993,0.993l0,4.636l0.993,1.324l8.774,0l1.49,1.656l0,11.919l-0.994,0.993l-11.919,0l-1.49,-1.49l0,-6.291l2.649,0c-0.11,0.332 -0.083,0.966 0.083,1.904c0.165,0.938 0.303,1.518 0.414,1.738c0,0.221 0.138,0.442 0.413,0.663c0.276,0.22 0.469,0.331 0.58,0.331l6.125,0l0.993,-0.994l0,-6.125l-0.993,-1.324l-8.774,0l-1.49,-1.821l0,-8.608l1.987,-2.153l11.422,0Zm-28.639,0l1.987,2.153l0,20.031l-1.987,1.986l-10.429,0l-1.987,-1.986l0,-20.031l1.987,-2.153l10.429,0Zm-92.043,0l0,20.031l1.324,0.994l6.125,0l1.325,-0.994l0,-20.031l2.814,0l0,22.68l-1.49,1.49l-11.423,0l-1.49,-1.49l0,-22.68l2.815,0Zm-16.058,0l0,2.815l-5.96,0l0,21.355l-2.98,0l0,-21.355l-5.959,0l0,-2.815l14.899,0Zm50.16,-0.496c0.773,0 1.545,0.248 2.318,0.745c0.772,0.496 1.49,1.103 2.152,1.821c0.662,0.717 1.186,1.49 1.572,2.317c0.387,0.828 0.58,1.628 0.58,2.401l0,9.767c0,0.441 -0.221,1.048 -0.662,1.821c-0.442,0.773 -0.966,1.545 -1.573,2.318c-0.607,0.772 -1.269,1.462 -1.987,2.069c-0.717,0.607 -1.351,0.91 -1.903,0.91l-8.278,0l0,-24.169l7.781,0Zm55.789,21.521l0.993,-0.994l0,-15.892l-0.993,-0.993l-6.125,0l-0.994,0.993l0,15.892l0.994,0.994l6.125,0Zm-55.789,-0.497c0.111,0 0.497,-0.304 1.159,-0.91c0.662,-0.607 1.159,-1.132 1.49,-1.573c0,-0.11 0.083,-0.304 0.248,-0.58c0.166,-0.275 0.248,-0.413 0.248,-0.413l0,-10.264c0,-0.111 -0.22,-0.552 -0.662,-1.325c-0.441,-0.772 -0.772,-1.379 -0.993,-1.821c-0.331,-0.662 -0.911,-1.02 -1.738,-1.076c-0.828,-0.055 -1.518,-0.082 -2.07,-0.082c-0.22,0 -0.607,0.027 -1.158,0.082c-0.552,0.056 -0.938,0.083 -1.159,0.083l0,17.879l4.635,0Zm9.271,-160.248l0,133.099l-4.636,0l0,-133.099l4.636,0Zm-6.622,0l0,133.099l-1.159,0l0,-133.099l1.159,0Zm-71.847,0l0,133.099l-0.993,0l0,-133.099l0.993,0Zm3.145,0l0,133.099l-0.993,0l0,-133.099l0.993,0Zm7.119,0l0,133.099l-4.635,0l0,-133.099l4.635,0Zm6.291,0l0,133.099l-4.636,0l0,-133.099l4.636,0Zm6.621,0l0,133.099l-0.993,0l0,-133.099l0.993,0Zm42.38,0l0,133.099l-4.635,0l0,-133.099l4.635,0Zm-7.118,0l0,133.099l-0.994,0l0,-133.099l0.994,0Zm-27.15,0l0,133.099l-4.635,0l0,-133.099l4.635,0Zm6.125,0l0,133.099l-0.993,0l0,-133.099l0.993,0Zm3.642,0l0,133.099l-0.993,0l0,-133.099l0.993,0Zm3.146,0l0,133.099l-1.159,0l0,-133.099l1.159,0Zm6.622,0l0,133.099l-4.636,0l0,-133.099l4.636,0Zm4.469,0l0,133.099l-0.993,0l0,-133.099l0.993,0Zm-59.762,0l0,133.099l-0.993,0l0,-133.099l0.993,0Zm118.696,0l0,133.099l-4.635,0l0,-133.099l4.635,0Zm3.146,0l0,133.099l-1.159,0l0,-133.099l1.159,0Zm6.622,0l0,133.099l-4.636,0l0,-133.099l4.636,0Zm3.145,0l0,133.099l-1.159,0l0,-133.099l1.159,0Zm6.622,0l0,133.099l-0.993,0l0,-133.099l0.993,0Zm-144.853,0l0,133.099l-4.635,0l0,-133.099l4.635,0Zm-6.787,0l0,133.099l-0.993,0l0,-133.099l0.993,0Zm-2.98,0l0,133.099l-4.635,0l0,-133.099l4.635,0Zm159.09,0l0,133.099l-0.994,0l0,-133.099l0.994,0Zm6.787,0l0,133.099l-4.635,0l0,-133.099l4.635,0Zm2.98,0l0,133.099l-0.994,0l0,-133.099l0.994,0Zm6.787,0l0,133.099l-4.635,0l0,-133.099l4.635,0Zm6.622,0l0,133.099l-0.993,0l0,-133.099l0.993,0Zm-189.053,0l0,133.099l-0.993,0l0,-133.099l0.993,0Zm110.584,0l0,133.099l-0.993,0l0,-133.099l0.993,0Zm6.788,0l0,133.099l-4.636,0l0,-133.099l4.636,0Zm2.98,0l0,133.099l-0.994,0l0,-133.099l0.994,0Zm10.263,0l0,133.099l-4.635,0l0,-133.099l4.635,0Zm3.146,0l0,133.099l-0.994,0l0,-133.099l0.994,0Z" style="fill:#c93;fill-rule:nonzero;"/><path id="Polymoprhic" d="M719.467,162.183l-27.544,0l41.207,-150.724c1.909,-7.639 6.537,-11.459 13.882,-11.459c2.938,0 5.693,0.808 8.263,2.424c2.571,1.616 4.518,3.966 5.84,7.051l49.36,113.264l49.36,-113.264c2.644,-6.317 7.125,-9.475 13.442,-9.475c6.758,0 11.238,3.82 13.442,11.459l40.986,150.724l-27.765,0l-30.63,-112.603l-45.393,104.23c-1.616,3.378 -3.563,5.986 -5.84,7.822c-2.277,1.837 -5.105,2.755 -8.483,2.755c-6.611,0 -11.386,-3.526 -14.324,-10.577l-45.173,-104.23l-30.63,112.603Zm982.134,0.661l-27.986,0l0,-69.633l-80.65,0l0,-24.9l80.65,0l0,-66.328l27.986,0l0,160.861Zm-128.909,0l-27.986,0l0,-160.861l27.986,0l0,160.861Zm-1544.93,-0.661l-27.765,0l0,-160.2l112.603,0c9.255,0 17.518,1.359 24.79,4.077c7.272,2.718 13.405,6.537 18.4,11.458c4.995,4.922 8.814,10.908 11.458,17.96c2.645,7.051 3.967,14.984 3.967,23.798c0,8.668 -1.322,16.564 -3.967,23.689c-2.644,7.125 -6.463,13.258 -11.458,18.399c-4.995,5.142 -11.128,9.145 -18.4,12.01c-7.272,2.865 -15.535,4.297 -24.79,4.297l-64.345,0l0,-27.104l64.345,0c9.842,0 17.518,-2.791 23.027,-8.374c5.509,-5.582 8.263,-12.927 8.263,-22.035c0,-9.255 -2.754,-16.601 -8.263,-22.036c-5.509,-5.436 -13.185,-8.153 -23.027,-8.153l-84.838,0l0,132.214Zm1731.13,0l-27.986,0l0,-160.2l27.986,0l0,160.2Zm-1218.8,0l-135.74,0l0,-160.2l27.985,0l0,132.215l107.755,0l0,27.985Zm1408.09,0l-86.821,0c-11.165,0 -21.485,-2.093 -30.96,-6.28c-9.476,-4.187 -17.702,-9.916 -24.68,-17.188c-6.978,-7.272 -12.414,-15.902 -16.307,-25.892c-3.893,-9.989 -5.839,-20.787 -5.839,-32.393c0,-11.752 1.946,-22.476 5.839,-32.172c3.893,-9.695 9.329,-17.959 16.307,-24.79c6.978,-6.831 15.204,-12.12 24.68,-15.866c9.475,-3.746 19.795,-5.619 30.96,-5.619l86.821,0l0,27.986l-86.821,0c-7.198,0 -13.846,1.285 -19.942,3.856c-6.097,2.571 -11.349,6.133 -15.756,10.687c-4.407,4.554 -7.859,9.99 -10.357,16.307c-2.497,6.317 -3.746,13.295 -3.746,20.934c0,7.492 1.249,14.47 3.746,20.934c2.498,6.463 5.95,12.009 10.357,16.637c4.407,4.627 9.659,8.263 15.756,10.907c6.096,2.645 12.744,3.967 19.942,3.967l86.821,0l0,27.985Zm-566.76,0l-27.765,0l0,-160.2l112.603,0c9.255,0 17.518,1.359 24.79,4.077c7.272,2.718 13.405,6.537 18.4,11.458c4.995,4.922 8.814,10.908 11.459,17.96c2.644,7.051 3.966,14.984 3.966,23.798c0,8.668 -1.322,16.564 -3.966,23.689c-2.645,7.125 -6.464,13.258 -11.459,18.399c-4.995,5.142 -11.128,9.145 -18.4,12.01c-7.271,2.865 -15.535,4.297 -24.79,4.297l-64.344,0l0,-27.104l64.344,0c9.843,0 17.518,-2.791 23.027,-8.374c5.509,-5.582 8.264,-12.927 8.264,-22.035c0,-9.255 -2.755,-16.601 -8.264,-22.036c-5.509,-5.436 -13.184,-8.153 -23.027,-8.153l-84.838,0l0,132.214Zm-202.949,0l-27.765,0l0,-160.2l115.027,0c9.108,0 17.261,1.359 24.459,4.077c7.199,2.718 13.295,6.611 18.29,11.679c4.995,5.068 8.814,11.201 11.459,18.4c2.644,7.198 3.966,15.278 3.966,24.239c0,13.368 -2.901,24.57 -8.704,33.604c-5.803,9.035 -13.919,15.536 -24.35,19.502l48.259,48.699l-39.665,0l-40.545,-44.512l-59.938,0l0,-24.68l66.769,0c10.136,0 17.775,-2.755 22.917,-8.264c5.142,-5.508 7.712,-13.478 7.712,-23.908c0,-10.431 -2.681,-18.18 -8.043,-23.248c-5.362,-5.068 -12.891,-7.602 -22.586,-7.602l-87.262,0l0,132.214Zm-875.26,0l-39.003,0c-11.165,0 -21.485,-2.093 -30.961,-6.28c-9.475,-4.187 -17.702,-9.916 -24.68,-17.188c-6.978,-7.272 -12.413,-15.902 -16.306,-25.892c-3.893,-9.989 -5.84,-20.787 -5.84,-32.393c0,-11.752 1.947,-22.476 5.84,-32.172c3.893,-9.695 9.328,-17.959 16.306,-24.79c6.978,-6.831 15.205,-12.12 24.68,-15.866c9.476,-3.746 19.796,-5.619 30.961,-5.619l39.003,0c11.605,0 22.219,1.91 31.842,5.73c9.622,3.819 17.885,9.181 24.79,16.086c6.904,6.904 12.266,15.168 16.086,24.79c3.819,9.622 5.729,20.236 5.729,31.841c0,11.606 -1.946,22.404 -5.839,32.393c-3.893,9.99 -9.329,18.62 -16.307,25.892c-6.978,7.272 -15.241,13.001 -24.79,17.188c-9.549,4.187 -20.052,6.28 -31.511,6.28Zm746.351,0l-39.003,0c-11.165,0 -21.485,-2.093 -30.961,-6.28c-9.475,-4.187 -17.702,-9.916 -24.68,-17.188c-6.978,-7.272 -12.413,-15.902 -16.306,-25.892c-3.893,-9.989 -5.84,-20.787 -5.84,-32.393c0,-11.752 1.947,-22.476 5.84,-32.172c3.893,-9.695 9.328,-17.959 16.306,-24.79c6.978,-6.831 15.205,-12.12 24.68,-15.866c9.476,-3.746 19.796,-5.619 30.961,-5.619l39.003,0c11.605,0 22.219,1.91 31.842,5.73c9.622,3.819 17.885,9.181 24.79,16.086c6.904,6.904 12.266,15.168 16.086,24.79c3.819,9.622 5.729,20.236 5.729,31.841c0,11.606 -1.946,22.404 -5.839,32.393c-3.893,9.99 -9.329,18.62 -16.307,25.892c-6.978,7.272 -15.241,13.001 -24.79,17.188c-9.549,4.187 -20.052,6.28 -31.511,6.28Zm-421.103,0l-27.986,0l0,-60.819l-85.058,-99.381l37.681,0l62.362,73.82l62.581,-73.82l35.698,0l-85.278,99.381l0,60.819Zm-325.248,-27.985c7.345,0 14.103,-1.322 20.273,-3.967c6.17,-2.644 11.495,-6.28 15.976,-10.907c4.48,-4.628 7.969,-10.174 10.467,-16.637c2.497,-6.464 3.746,-13.442 3.746,-20.934c0,-7.493 -1.249,-14.434 -3.746,-20.824c-2.498,-6.391 -5.987,-11.863 -10.467,-16.417c-4.481,-4.554 -9.806,-8.116 -15.976,-10.687c-6.17,-2.571 -12.928,-3.856 -20.273,-3.856l-39.003,0c-7.199,0 -13.846,1.285 -19.943,3.856c-6.096,2.571 -11.348,6.133 -15.755,10.687c-4.407,4.554 -7.86,9.99 -10.357,16.307c-2.497,6.317 -3.746,13.295 -3.746,20.934c0,7.492 1.249,14.47 3.746,20.934c2.497,6.463 5.95,12.009 10.357,16.637c4.407,4.627 9.659,8.263 15.755,10.907c6.097,2.645 12.744,3.967 19.943,3.967l39.003,0Zm746.351,0c7.345,0 14.103,-1.322 20.273,-3.967c6.17,-2.644 11.495,-6.28 15.976,-10.907c4.48,-4.628 7.969,-10.174 10.467,-16.637c2.497,-6.464 3.746,-13.442 3.746,-20.934c0,-7.493 -1.249,-14.434 -3.746,-20.824c-2.498,-6.391 -5.987,-11.863 -10.467,-16.417c-4.481,-4.554 -9.806,-8.116 -15.976,-10.687c-6.17,-2.571 -12.928,-3.856 -20.273,-3.856l-39.003,0c-7.199,0 -13.846,1.285 -19.943,3.856c-6.096,2.571 -11.348,6.133 -15.755,10.687c-4.407,4.554 -7.86,9.99 -10.357,16.307c-2.497,6.317 -3.746,13.295 -3.746,20.934c0,7.492 1.249,14.47 3.746,20.934c2.497,6.463 5.95,12.009 10.357,16.637c4.407,4.627 9.659,8.263 15.755,10.907c6.097,2.645 12.744,3.967 19.943,3.967l39.003,0Z" style="fill:#fff;fill-rule:nonzero;"/></svg>