<?xml version="1.0" encoding="UTF-8" standalone="no"?><!DOCTYPE svg PUBLIC "-//W3C//DTD SVG 1.1//EN" "http://www.w3.org/Graphics/SVG/1.1/DTD/svg11.dtd"><svg width="100%" height="100%" viewBox="0 0 2465 496" version="1.1" xmlns="http://www.w3.org/2000/svg" xmlns:xlink="http://www.w3.org/1999/xlink" xml:space="preserve" xmlns:serif="http://www.serif.com/" style="fill-rule:evenodd;clip-rule:evenodd;stroke-linejoin:round;stroke-miterlimit:1.41421;"><path d="M788.047,417.89c0.475,0.114 0.96,0.191 1.424,0.342c4.617,1.5 7.563,6.923 5.991,11.759c-1.056,3.252 -4.021,5.796 -7.415,6.334c-0.482,0.076 -0.973,0.076 -1.46,0.114l-382.732,0c-0.487,-0.038 -0.978,-0.038 -1.46,-0.114c-3.861,-0.612 -7.142,-3.873 -7.757,-7.758c-0.612,-3.862 1.476,-7.989 4.98,-9.775c0.873,-0.444 1.81,-0.749 2.777,-0.902c0.482,-0.076 0.973,-0.076 1.46,-0.115l382.732,0c0.487,0.039 0.973,0.077 1.46,0.115Z" style="fill-rule:nonzero;"/><path d="M1101.44,351.547c1.206,0.289 2.419,0.583 3.519,1.143c4.95,2.522 7.649,8.745 5.879,14.193c-1.339,4.12 -5.065,7.341 -9.398,8.027c-0.611,0.097 -1.233,0.097 -1.85,0.146l-571.744,0c-0.616,-0.049 -1.239,-0.049 -1.85,-0.146c-4.894,-0.775 -9.051,-4.908 -9.831,-9.831c-0.775,-4.895 1.871,-10.126 6.312,-12.389c1.106,-0.563 2.293,-0.949 3.519,-1.143c0.611,-0.097 1.234,-0.097 1.85,-0.146l571.744,0c0.617,0.049 1.233,0.097 1.85,0.146Z" style="fill-rule:nonzero;"/><path d="M856.446,356.592c0.468,0.138 0.948,0.239 1.404,0.414c3.653,1.394 6.19,5.262 5.991,9.19c-0.099,1.956 -0.827,3.864 -2.057,5.388c-0.307,0.38 -0.671,0.709 -1.006,1.064l-67.934,61.384c-0.387,0.297 -0.752,0.626 -1.161,0.893c-3.275,2.135 -7.895,1.915 -10.956,-0.555c-3.043,-2.455 -4.261,-6.918 -2.858,-10.592c0.349,-0.915 0.841,-1.769 1.455,-2.531c0.307,-0.38 0.671,-0.709 1.007,-1.064l67.934,-61.384c0.386,-0.297 0.751,-0.626 1.16,-0.893c1.232,-0.803 2.651,-1.306 4.105,-1.462c0.968,-0.103 1.945,0.022 2.916,0.148Z" style="fill-rule:nonzero;"/><circle cx="403.855" cy="426.71" r="28.911"/><circle cx="525.35" cy="364.921" r="28.911"/><circle cx="1106.27" cy="364.216" r="28.911"/><path d="M361.385,446.715c3.713,5.576 8.606,10.3 14.322,13.814c-37.316,22.488 -81.023,35.428 -127.729,35.428c-136.863,0 -247.978,-111.116 -247.978,-247.979c0,-136.863 111.115,-247.978 247.978,-247.978c136.863,0 247.979,111.115 247.979,247.978c0,58.345 -20.193,112.01 -53.966,154.383c-2.755,-6.158 -6.821,-11.604 -11.841,-15.982c29.261,-38.441 46.64,-86.407 46.64,-138.401c0,-126.284 -102.527,-228.812 -228.812,-228.812c-126.284,0 -228.812,102.528 -228.812,228.812c0,126.285 102.528,228.812 228.812,228.812c41.253,0 79.97,-10.94 113.407,-30.075Z"/><path d="M402.578,152.477c17.194,27.758 27.123,60.479 27.123,95.501c0,100.296 -81.427,181.723 -181.723,181.723c-100.295,0 -181.722,-81.427 -181.722,-181.723c0,-100.295 81.427,-181.722 181.722,-181.722c20.22,0 39.672,3.309 57.845,9.415c-19.17,11.546 -32.003,32.561 -32.003,56.551c0,36.407 29.558,65.965 65.966,65.965c29.342,0 54.236,-19.199 62.792,-45.71Z"/><path d="M689.655,80.633l-34.269,0l15.015,-48.38l-35.478,0l-60.171,48.38l-14.111,0l-15.015,48.38l14.11,0l-33.786,108.855c-11.387,36.688 12.316,56.443 67.147,56.443c10.482,0 20.13,-1.209 29.348,-3.628l14.89,-47.977c-4.254,2.016 -8.661,3.225 -13.096,3.225c-12.901,0 -17.906,-7.256 -13.901,-20.158l30.032,-96.76l34.269,0l15.016,-48.38Z" style="fill-rule:nonzero;"/><path d="M793.713,76.602c-67.731,0 -96.732,12.901 -107.744,48.38l-37.54,120.949c-11.011,35.479 9.981,48.38 77.713,48.38c67.732,0 96.732,-12.901 107.744,-48.38l37.54,-120.949c11.011,-35.479 -9.981,-48.38 -77.713,-48.38Zm-15.015,48.38c7.66,0 9.592,8.063 5.838,20.158l-25.027,80.633c-3.754,12.095 -10.691,20.158 -18.351,20.158c-7.661,0 -9.593,-8.063 -5.839,-20.158l25.027,-80.633c3.754,-12.095 10.691,-20.158 18.352,-20.158Z" style="fill-rule:nonzero;"/><path d="M899.301,80.633l-65.069,209.647l80.633,0l46.3,-149.172c4.907,-2.822 9.036,-4.435 12.665,-4.435c8.466,0 10.649,7.257 6.519,20.562l-41.294,133.045l80.634,0l46.299,-149.172c4.907,-2.822 9.036,-4.435 12.665,-4.435c8.466,0 10.649,7.257 6.52,20.562l-25.027,80.633c-11.888,38.301 -13.848,52.412 -2.157,52.412l68.539,0c1.293,-8.064 4.115,-19.755 7.995,-32.254l41.293,-133.044c8.76,-28.222 -7.964,-48.38 -41.427,-48.38c-23.787,0 -45.822,6.047 -65.73,16.933c-6.701,-10.886 -20.144,-16.933 -39.093,-16.933c-30.641,0 -59.322,9.272 -84.36,24.996l-8.007,-20.965l-37.898,0Z" style="fill-rule:nonzero;"/><path d="M1138.62,290.28l80.633,0l30.032,-96.76l11.289,0c7.66,0 10.398,8.063 6.644,20.158l-7.508,24.19c-11.887,38.301 -13.848,52.412 -2.156,52.412l68.538,0c1.293,-8.064 4.116,-19.755 7.995,-32.254l12.513,-40.316c6.132,-19.755 -7.339,-38.704 -27.441,-47.977c24.245,-9.273 46.434,-26.206 52.19,-44.751l13.765,-44.349l-76.602,0l-16.392,52.815c-3.754,12.095 -15.405,19.755 -23.065,19.755l-7.257,0l47.551,-153.203l-80.634,0l-90.095,290.28Z" style="fill-rule:nonzero;"/><path d="M1495.22,76.602c-67.732,0 -96.733,12.901 -107.744,48.38l-37.54,120.949c-11.012,35.479 9.98,48.38 77.712,48.38c67.732,0 96.733,-12.901 107.744,-48.38l37.54,-120.949c11.012,-35.479 -9.98,-48.38 -77.712,-48.38Zm-15.016,48.38c7.66,0 9.592,8.063 5.838,20.158l-25.026,80.633c-3.754,12.095 -10.692,20.158 -18.352,20.158c-7.66,0 -9.592,-8.063 -5.838,-20.158l25.026,-80.633c3.754,-12.095 10.692,-20.158 18.352,-20.158Z" style="fill-rule:nonzero;"/><path d="M1600.81,80.633l-65.069,209.647l80.633,0l46.299,-149.172c4.908,-2.822 9.037,-4.435 12.665,-4.435c8.467,0 10.649,7.257 6.52,20.562l-25.027,80.633c-11.887,38.301 -13.848,52.412 -2.156,52.412l68.538,0c1.293,-8.064 4.116,-19.755 7.995,-32.254l41.294,-133.044c8.759,-28.222 -7.965,-48.38 -41.428,-48.38c-30.64,0 -59.321,9.272 -84.36,24.996l-8.007,-20.965l-37.897,0Z" style="fill-rule:nonzero;"/><path d="M1811.01,46.364l80.634,0l14.39,-46.364l-80.633,0l-14.391,46.364Zm-10.636,34.269l-48.802,157.235c-11.887,38.301 -13.848,52.412 -2.156,52.412l68.538,0c1.293,-8.064 4.116,-19.755 7.995,-32.254l55.058,-177.393l-80.633,0Z" style="fill-rule:nonzero;"/><path d="M2023.59,0l-29.406,94.744c-10.885,-11.692 -25.413,-18.142 -42.749,-18.142c-33.463,0 -62.7,20.158 -71.459,48.38l-37.54,120.949c-8.759,28.222 7.964,48.38 41.427,48.38c30.238,0 58.918,-9.272 83.832,-24.593l4.503,20.562l43.946,0c1.293,-8.064 4.115,-19.755 7.994,-32.254l80.085,-258.026l-80.633,0Zm-71.326,229.805c-4.907,2.822 -9.036,4.435 -12.665,4.435c-7.66,0 -10.273,-8.467 -6.519,-20.562l17.518,-56.443c3.754,-12.095 11.623,-20.562 19.283,-20.562c3.629,0 6.757,1.613 9.913,4.435l-27.53,88.697Z" style="fill-rule:nonzero;"/><path d="M2077.45,149.172l76.601,0l1.252,-4.032c3.754,-12.095 10.691,-20.158 18.351,-20.158c8.064,0 9.593,8.063 5.964,19.755c-4.63,14.917 -12.833,20.561 -30.572,20.561c-56.04,0 -84.638,12.902 -95.649,48.38l-10.011,32.253c-8.759,28.222 7.965,48.38 41.427,48.38c28.625,0 55.846,-8.466 79.453,-22.174l8.382,19.755c0,0 43.737,-3.225 44.946,-3.225c1.294,-8.063 1.739,-12.095 11.249,-42.736l37.54,-120.949c11.011,-35.479 -9.578,-48.38 -77.713,-48.38c-64.91,0 -92.701,12.901 -103.712,48.38l-7.508,24.19Zm73.137,89.099c-4.379,2.419 -7.98,3.629 -11.205,3.629c-14.514,0 -16.141,-6.451 -12.387,-18.546c6.632,-21.368 25.136,-17.336 35.354,-22.98l-11.762,37.897Z" style="fill-rule:nonzero;"/><path d="M2453.64,145.14l8.759,-28.222c9.135,-29.431 -11.274,-40.316 -76.183,-40.316c-67.732,0 -92.701,12.901 -103.713,48.38l-13.139,42.332c-8.133,26.206 16.251,34.672 41.914,40.317c25.664,5.644 51.925,8.063 47.546,22.174c-3.629,11.692 -11.456,16.126 -29.196,16.126c-12.901,0 -21.687,-8.063 -19.184,-16.126l2.502,-8.063l-64.506,0l-10.011,32.253c-8.134,26.206 19.74,40.316 80.215,40.316c67.732,0 96.732,-12.901 107.744,-48.38l15.016,-48.379c8.134,-26.206 -17.585,-34.27 -44.243,-39.309c-26.657,-5.04 -54.253,-7.056 -49.874,-21.166c2.753,-8.87 9.802,-12.095 25.929,-12.095c11.691,0 20.922,4.031 18.42,12.095l-2.503,8.063l64.507,0Z" style="fill-rule:nonzero;"/><text x="1148.36px" y="394.749px" style="font-family:'AppleSDGothicNeo-Regular', 'Apple SD Gothic Neo';font-size:117.601px;">p<tspan x="1215.94px 1260.92px 1327.26px 1369.62px 1432.1px 1484.91px 1537.73px 1569.19px 1635.53px 1702.09px 1761.38px 1792.84px 1828.39px 1925.28px 1991.16px 2022.62px 2068.06px 2099.52px 2196.41px 2258.88px 2326.46px 2357.93px " y="394.749px 394.749px 394.749px 394.749px 394.749px 394.749px 394.749px 394.749px 394.749px 394.749px 394.749px 394.749px 394.749px 394.749px 394.749px 394.749px 394.749px 394.749px 394.749px 394.749px 394.749px 394.749px ">rofessional multimedia</tspan></text></svg>