<?xml version="1.0" standalone="no"?>
<!DOCTYPE svg PUBLIC "-//W3C//DTD SVG 20010904//EN"
 "http://www.w3.org/TR/2001/REC-SVG-20010904/DTD/svg10.dtd">
<svg version="1.0" xmlns="http://www.w3.org/2000/svg"
 width="680.000000pt" height="680.000000pt" viewBox="0 0 680.000000 680.000000"
 preserveAspectRatio="xMidYMid meet">
<metadata>
Created by potrace 1.11, written by Peter Selinger 2001-2013
</metadata>
<g transform="translate(0.000000,680.000000) scale(0.100000,-0.100000)"
fill="#000000" stroke="none">
<path d="M0 3400 l0 -3400 3400 0 3400 0 0 3400 0 3400 -3400 0 -3400 0 0
-3400z m1450 565 c0 -910 -3 -1375 -10 -1375 -7 0 -10 465 -10 1375 0 910 3
1375 10 1375 7 0 10 -465 10 -1375z m140 0 l0 -1375 -45 0 -45 0 0 1375 0
1375 45 0 45 0 0 -1375z m57 -693 c-1 -378 -2 -66 -2 693 0 759 1 1068 2 687
2 -382 2 -1003 0 -1380z m143 693 l0 -1375 -45 0 -45 0 0 1375 0 1375 45 0 45
0 0 -1375z m140 0 c0 -910 -3 -1375 -10 -1375 -7 0 -10 465 -10 1375 0 910 3
1375 10 1375 7 0 10 -465 10 -1375z m87 -693 c-1 -378 -2 -66 -2 693 0 759 1
1068 2 687 2 -382 2 -1003 0 -1380z m73 693 c0 -910 -3 -1375 -10 -1375 -7 0
-10 465 -10 1375 0 910 3 1375 10 1375 7 0 10 -465 10 -1375z m143 1008 c4
-203 7 -821 7 -1375 l0 -1008 -50 0 -50 0 0 1375 0 1375 43 0 44 0 6 -367z
m137 -1008 l0 -1375 -50 0 -50 0 0 1375 0 1375 50 0 50 0 0 -1375z m127 -693
c-1 -378 -2 -66 -2 693 0 759 1 1068 2 687 2 -382 2 -1003 0 -1380z m173 693
l0 -1375 -45 0 -45 0 0 1375 0 1375 45 0 45 0 0 -1375z m130 0 c0 -910 -3
-1375 -10 -1375 -7 0 -10 465 -10 1375 0 910 3 1375 10 1375 7 0 10 -465 10
-1375z m67 -693 c-1 -378 -2 -66 -2 693 0 759 1 1068 2 687 2 -382 2 -1003 0
-1380z m73 693 c0 -910 -3 -1375 -10 -1375 -7 0 -10 465 -10 1375 0 910 3
1375 10 1375 7 0 10 -465 10 -1375z m140 0 l0 -1375 -50 0 -50 0 0 1375 0
1375 50 0 50 0 0 -1375z m90 0 c0 -910 -3 -1375 -10 -1375 -7 0 -10 465 -10
1375 0 910 3 1375 10 1375 7 0 10 -465 10 -1375z m57 -693 c-1 -378 -2 -66 -2
693 0 759 1 1068 2 687 2 -382 2 -1003 0 -1380z m153 693 l0 -1375 -45 0 -45
0 0 1375 0 1375 45 0 45 0 0 -1375z m130 0 c0 -910 -3 -1375 -10 -1375 -7 0
-10 465 -10 1375 0 910 3 1375 10 1375 7 0 10 -465 10 -1375z m140 0 l0 -1375
-45 0 -45 0 0 1375 0 1375 45 0 45 0 0 -1375z m90 0 c0 -910 -3 -1375 -10
-1375 -7 0 -10 465 -10 1375 0 910 3 1375 10 1375 7 0 10 -465 10 -1375z m140
0 l0 -1375 -45 0 -45 0 0 1375 0 1375 45 0 45 0 0 -1375z m57 -693 c-1 -378
-2 -66 -2 693 0 759 1 1068 2 687 2 -382 2 -1003 0 -1380z m223 693 l0 -1375
-50 0 -50 0 0 1375 0 1375 50 0 50 0 0 -1375z m60 0 c0 -910 -3 -1375 -10
-1375 -7 0 -10 465 -10 1375 0 910 3 1375 10 1375 7 0 10 -465 10 -1375z m170
0 l0 -1375 -45 0 -45 0 0 1375 0 1375 45 0 45 0 0 -1375z m65 1203 c4 -95 5
-371 1 -613 -3 -242 -5 -783 -6 -1202 0 -502 -3 -763 -10 -763 -7 0 -10 465
-10 1375 0 800 4 1375 9 1375 5 0 12 -78 16 -172z m135 -1203 l0 -1375 -45 0
-45 0 0 1375 0 1375 45 0 45 0 0 -1375z m70 0 c0 -910 -3 -1375 -10 -1375 -7
0 -10 465 -10 1375 0 910 3 1375 10 1375 7 0 10 -465 10 -1375z m127 -693 c-1
-378 -2 -66 -2 693 0 759 1 1068 2 687 2 -382 2 -1003 0 -1380z m103 693 c0
-910 -3 -1375 -10 -1375 -7 0 -10 465 -10 1375 0 910 3 1375 10 1375 7 0 10
-465 10 -1375z m140 0 l0 -1375 -50 0 -50 0 0 1375 0 1375 50 0 50 0 0 -1375z
m60 0 c0 -910 -3 -1375 -10 -1375 -7 0 -10 465 -10 1375 0 910 3 1375 10 1375
7 0 10 -465 10 -1375z m140 0 l0 -1375 -45 0 -45 0 0 1375 0 1375 45 0 45 0 0
-1375z m140 0 c0 -910 -3 -1375 -10 -1375 -7 0 -10 465 -10 1375 0 910 3 1375
10 1375 7 0 10 -465 10 -1375z m-2408 -1512 c8 -10 35 -64 59 -120 24 -56 46
-100 50 -98 3 3 28 54 54 114 71 165 81 161 140 -50 23 -85 40 -157 38 -161
-2 -5 -15 -8 -28 -8 -21 0 -27 8 -40 55 -8 30 -23 81 -32 112 l-16 58 -33 -75
c-80 -181 -89 -186 -140 -73 -20 43 -43 94 -51 113 l-15 35 -32 -110 c-29
-104 -33 -110 -58 -113 -16 -2 -28 1 -28 7 0 23 82 306 92 318 14 17 22 16 40
-4z m-1231 -14 c59 -42 58 -147 -3 -190 -26 -19 -45 -22 -117 -23 l-86 -1 -3
28 -3 27 65 0 c79 0 113 12 128 44 9 20 8 30 -6 51 -16 24 -20 25 -116 25
l-99 0 -3 -132 -3 -133 -27 -3 -28 -3 0 165 0 166 136 0 c121 0 139 -2 165
-21z m400 -2 c92 -61 92 -211 0 -274 -61 -41 -191 -41 -253 1 -48 32 -72 81
-72 144 1 60 20 93 74 130 28 19 46 22 125 22 79 0 97 -3 126 -23z m179 -107
l0 -130 105 0 105 0 0 -35 0 -36 -137 3 -138 3 -3 163 -2 162 35 0 35 0 0
-130z m304 58 l59 -71 31 34 c17 19 45 51 62 72 27 33 36 38 68 35 l36 -3 -85
-99 -85 -100 0 -64 c0 -63 0 -63 -27 -60 -27 3 -28 5 -31 67 l-3 65 -85 98
-85 98 43 -1 c41 -1 46 -4 102 -71z m1024 52 c95 -58 97 -212 4 -276 -60 -41
-193 -42 -254 0 -96 64 -95 209 2 273 28 20 46 23 124 23 73 0 97 -4 124 -20z
m421 4 c13 -9 29 -32 37 -50 22 -54 18 -89 -18 -129 l-31 -36 41 -42 c23 -24
42 -46 42 -50 0 -4 -15 -7 -33 -7 -27 0 -43 9 -81 50 -46 49 -48 50 -107 50
-56 0 -59 1 -59 25 0 25 1 25 82 25 92 0 118 13 118 61 0 50 -21 59 -130 59
l-99 0 -3 -132 -3 -133 -27 -3 -28 -3 0 165 0 166 138 0 c111 0 142 -3 161
-16z m408 -4 c59 -36 65 -127 11 -181 -29 -28 -33 -29 -124 -29 -94 0 -94 0
-94 25 0 24 2 25 64 25 79 0 113 12 128 44 9 20 8 30 -6 51 -16 24 -20 25
-116 25 l-99 0 -3 -132 -3 -133 -27 -3 -28 -3 0 165 0 166 133 0 c113 0 137
-3 164 -20z m143 -146 l0 -165 -27 3 -28 3 -3 163 -2 162 30 0 30 0 0 -166z
m260 0 l0 -165 -27 3 c-27 3 -28 5 -31 70 l-3 67 -77 3 c-76 3 -77 3 -80 31
l-3 27 80 0 81 0 0 65 0 65 30 0 30 0 0 -166z m120 6 l0 -160 -30 0 -30 0 0
160 0 160 30 0 30 0 0 -160z m380 130 l0 -30 -106 0 c-103 0 -106 -1 -135 -29
-39 -39 -40 -96 -3 -140 l26 -31 109 0 109 0 0 -30 0 -30 -114 0 c-101 0 -117
2 -146 23 -95 65 -94 218 2 277 28 17 51 20 146 20 l112 0 0 -30z m-1839 -467
c60 -54 69 -83 69 -220 0 -132 -7 -153 -73 -223 l-39 -40 -99 0 -99 0 0 260 0
260 100 0 100 0 41 -37z m-1793 -50 c3 -72 3 -73 -22 -73 -20 0 -27 6 -32 28
-14 69 -18 72 -92 72 -40 0 -73 -5 -80 -12 -16 -16 -16 -120 0 -136 8 -8 47
-12 109 -12 70 0 100 -4 108 -14 8 -9 11 -59 9 -152 l-3 -139 -135 -7 c-168
-9 -170 -8 -170 99 l0 74 27 -3 c24 -3 29 -9 35 -47 4 -25 13 -48 20 -53 20
-12 133 -9 146 4 12 12 17 134 6 162 -5 13 -24 16 -102 16 -128 0 -132 3 -132
127 0 70 4 100 16 119 17 24 17 25 153 22 l136 -3 3 -72z m622 47 l0 -30 -65
0 -65 0 0 -230 0 -230 -35 0 -35 0 0 230 0 229 -62 3 c-60 3 -63 4 -66 31 l-3
27 165 0 166 0 0 -30z m350 -190 c0 -252 -5 -240 95 -240 100 0 95 -12 95 240
l0 220 30 0 30 0 0 -248 c0 -180 -3 -251 -12 -260 -17 -17 -269 -17 -286 0 -9
9 -12 80 -12 260 l0 248 30 0 30 0 0 -220z m1330 -45 l0 -265 -30 0 -30 0 0
265 0 265 30 0 30 0 0 -265z m702 248 c13 -15 17 -59 20 -240 6 -278 15 -263
-152 -263 -168 0 -160 -13 -160 259 0 274 -8 261 160 261 99 0 119 -3 132 -17z
m626 -61 l3 -73 -28 3 c-23 2 -29 9 -33 38 -4 20 -10 41 -14 48 -10 16 -148
16 -164 0 -18 -18 -15 -108 5 -130 13 -15 32 -18 113 -18 123 0 122 2 118
-175 l-3 -130 -139 -3 c-93 -2 -143 1 -152 9 -9 8 -14 34 -14 80 0 66 1 69 24
69 20 0 25 -7 31 -37 4 -21 11 -44 17 -50 14 -17 140 -17 156 -1 12 12 17 134
6 162 -5 13 -24 16 -102 16 -128 0 -132 3 -132 127 0 70 4 100 16 119 17 24
17 25 153 22 l136 -3 3 -73z"/>
<path d="M1915 2388 c-34 -19 -44 -41 -45 -89 0 -37 5 -52 26 -73 24 -24 34
-26 106 -26 75 0 81 2 109 29 23 23 29 38 29 71 0 33 -6 48 -29 71 -27 27 -35
29 -103 29 -40 0 -82 -6 -93 -12z"/>
<path d="M3425 2388 c-34 -19 -44 -41 -45 -89 0 -37 5 -52 26 -73 25 -24 33
-26 109 -26 81 0 84 1 109 31 37 44 36 101 -3 140 -27 27 -35 29 -103 29 -40
0 -82 -6 -93 -12z"/>
<path d="M3352 1743 l3 -198 51 -3 c48 -3 53 -1 87 38 l37 40 0 111 c0 82 -4
118 -16 142 -30 59 -42 67 -106 67 l-58 0 2 -197z"/>
<path d="M4532 1918 c-17 -17 -17 -359 0 -376 16 -16 140 -16 156 0 17 17 17
359 0 376 -7 7 -40 12 -78 12 -38 0 -71 -5 -78 -12z"/>
</g>
</svg>
